<?xml version="1.0" ?>
<!-- Uploaded to: SVG Repo, www.svgrepo.com, Generator: SVG Repo Mixer Tools -->
<svg width="800px" height="800px" viewBox="0 0 64 64" xmlns="http://www.w3.org/2000/svg">
<defs>
<style>.cls-1{fill:#e0e9ee;}.cls-2{fill:#f0f4f7;}.cls-3{fill:#d0e1e8;}.cls-4{fill:#efc89d;}.cls-5{fill:#748a95;}.cls-6{fill:#e5936b;}</style>
</defs>
<g id="Wizard">
<path class="cls-1" d="M12.64,48.42a15,15,0,0,0-3.58,5.17C8.53,54.85,9.67,56,11,56H36c1.37,0,2.51-1.15,2-2.41a15.08,15.08,0,0,0-3.58-5.17Z" id="path57980-6-4"/>
<path class="cls-2" d="M24.52,52.9A9.17,9.17,0,0,0,27,52c5.38-2.7,9.93-3.8,9.93-7a9,9,0,0,0-3.76-7H13.9a9,9,0,0,0-3.76,7c0,3.25,4.55,4.35,9.93,7a9,9,0,0,0,2.45.89l1-.75Z" id="path56511-7-8"/>
<path class="cls-3" d="M23.52,46.83a1,1,0,0,0-1,1v5.06a5.38,5.38,0,0,0,2,0V47.83A1,1,0,0,0,23.52,46.83Z" id="path61228-9"/>
<path class="cls-4" d="M33.47,35.45a17.39,17.39,0,0,1-.85,4.6c-1.64,4.12-5.1,7.77-9.09,7.77s-7.44-3.65-9.08-7.77a16.62,16.62,0,0,1-.85-4.6l9.93-2.64Z" id="path41635-0-5"/>
<path class="cls-1" d="M29.63,8a1.06,1.06,0,0,0-.35.09l-4.56,2.06a10.9,10.9,0,0,0-5.36,5.31L14.47,26l9,2.46L32.57,26l-4.8-10.18a3.32,3.32,0,0,1,.56-3.65L30.5,9.79A1.06,1.06,0,0,0,29.63,8Z" id="rect49460-5-6"/>
<path class="cls-5" d="M14.47,26l-2.39,5.14,11.45,2,11.46-2L32.57,26Z" id="path54734-5-1"/>
<path class="cls-2" d="M26.09,28.54A2.57,2.57,0,1,1,23.52,26,2.57,2.57,0,0,1,26.09,28.54Z" id="path54838-4-0"/>
<path class="cls-1" d="M8.06,34a4.33,4.33,0,0,1,4.1-2.89H34.91A4.34,4.34,0,0,1,39,34a1.16,1.16,0,0,1-1.23,1.45H9.29A1.15,1.15,0,0,1,8.06,34Z" id="rect40308-61-6"/>
<path class="cls-2" d="M21.43,42.22a2.22,2.22,0,0,0,0,.37,2.13,2.13,0,1,0,4.26,0h0a2.22,2.22,0,0,0,0-.37l-.79-1.81L22.6,40.1Z" id="path97081-1"/>
<path class="cls-5" d="M24.13,42.27a2.42,2.42,0,0,0,.84.33,4.31,4.31,0,0,0,2.78-.29h0A4.88,4.88,0,0,0,30,39a.47.47,0,0,0-.77-.47,2.87,2.87,0,0,1-.83.5,1,1,0,0,1-.77,0h0a1.1,1.1,0,0,1-.45-.41,2.42,2.42,0,0,0-.77-.7,2.82,2.82,0,0,0-2.26-.28h0a4.15,4.15,0,0,1-1.7-.1,2.26,2.26,0,0,0-.43,0,2.69,2.69,0,0,0-2.19,1.26.94.94,0,0,1-1.08.25l0,0a6.1,6.1,0,0,1-.86-.5.48.48,0,0,0-.71.52,4.81,4.81,0,0,0,2.29,3.36l0,0a4.36,4.36,0,0,0,2.85.18,3.15,3.15,0,0,0,.88-.41.75.75,0,0,1,.46-.12A1.83,1.83,0,0,1,24.13,42.27Z" id="path88492"/>
<path class="cls-6" d="M47.39,20.07a2.2,2.2,0,0,1,2.4.19A7.86,7.86,0,0,1,51.93,22l-.41,2.45-1.9,1.65a2,2,0,0,0-.53.72L42.8,41.49a2.1,2.1,0,0,0-.16.69L42.06,53.9a2,2,0,0,0,4,.21l.57-11.37,6-13.92L54.68,27a2,2,0,0,0,.67-1.18L56,22a1.5,1.5,0,0,0,0-.22,4.55,4.55,0,0,0-.13-.93,4.27,4.27,0,0,0-.62-1.16,11.7,11.7,0,0,0-3.33-2.85,6.45,6.45,0,0,0-1.66-.75,6.47,6.47,0,0,0-6.6,1.8,3.09,3.09,0,0,0-1.06,2.29,7.1,7.1,0,0,1-.3,1.12c-.17.46-.33.79-.33.79a2,2,0,0,0,0,1.66l.78,1.78A2,2,0,1,0,46.39,24L46,23c0-.12,0-.11.1-.25a7,7,0,0,0,.55-2.24A4.8,4.8,0,0,0,47.39,20.07Z" id="path344478-2"/>
</g>
</svg>